<svg width="621" height="183" viewBox="0 0 621 183" fill="none" xmlns="http://www.w3.org/2000/svg">
<path d="M71.4844 29.8828L36.8164 142.188H0L52.2461 0H75.5859L71.4844 29.8828ZM100.195 142.188L65.4297 29.8828L60.9375 0H84.5703L137.109 142.188H100.195ZM98.8281 89.1602V115.625H25.8789V89.1602H98.8281ZM174.512 56.8359V182.812H141.602V36.5234H172.266L174.512 56.8359ZM239.355 88.0859V90.1367C239.355 97.819 238.477 104.948 236.719 111.523C234.961 118.099 232.357 123.828 228.906 128.711C225.456 133.594 221.159 137.402 216.016 140.137C210.938 142.806 205.046 144.141 198.34 144.141C192.025 144.141 186.589 142.741 182.031 139.941C177.474 137.142 173.665 133.268 170.605 128.32C167.546 123.372 165.072 117.708 163.184 111.328C161.296 104.948 159.798 98.2096 158.691 91.1133V88.4766C159.798 80.8594 161.296 73.7956 163.184 67.2852C165.072 60.7096 167.546 54.9805 170.605 50.0977C173.665 45.2148 177.441 41.4062 181.934 38.6719C186.491 35.9375 191.927 34.5703 198.242 34.5703C204.948 34.5703 210.84 35.8398 215.918 38.3789C221.061 40.918 225.358 44.5638 228.809 49.3164C232.324 54.0039 234.961 59.6354 236.719 66.2109C238.477 72.7865 239.355 80.0781 239.355 88.0859ZM206.445 90.1367V88.0859C206.445 83.9844 206.152 80.2409 205.566 76.8555C204.98 73.4049 204.036 70.4102 202.734 67.8711C201.497 65.332 199.837 63.3789 197.754 62.0117C195.671 60.6445 193.099 59.9609 190.039 59.9609C186.523 59.9609 183.561 60.5143 181.152 61.6211C178.809 62.6628 176.921 64.2904 175.488 66.5039C174.121 68.6523 173.145 71.3542 172.559 74.6094C172.038 77.7995 171.81 81.543 171.875 85.8398V93.8477C171.745 98.7956 172.233 103.158 173.34 106.934C174.447 110.645 176.367 113.542 179.102 115.625C181.836 117.708 185.547 118.75 190.234 118.75C193.359 118.75 195.964 118.034 198.047 116.602C200.13 115.104 201.79 113.053 203.027 110.449C204.264 107.78 205.143 104.72 205.664 101.27C206.185 97.819 206.445 94.1081 206.445 90.1367ZM305.176 144.141C296.582 144.141 288.9 142.806 282.129 140.137C275.358 137.402 269.629 133.659 264.941 128.906C260.319 124.154 256.771 118.685 254.297 112.5C251.888 106.315 250.684 99.7721 250.684 92.8711V89.1602C250.684 81.4128 251.758 74.2513 253.906 67.6758C256.055 61.0352 259.245 55.2409 263.477 50.293C267.708 45.3451 273.014 41.5039 279.395 38.7695C285.775 35.9701 293.197 34.5703 301.66 34.5703C309.147 34.5703 315.853 35.7747 321.777 38.1836C327.702 40.5924 332.715 44.043 336.816 48.5352C340.983 53.0273 344.141 58.4635 346.289 64.8438C348.503 71.224 349.609 78.3854 349.609 86.3281V99.707H263.281V79.1016H317.48V76.5625C317.546 73.0469 316.927 70.0521 315.625 67.5781C314.388 65.1042 312.565 63.2161 310.156 61.9141C307.747 60.612 304.818 59.9609 301.367 59.9609C297.786 59.9609 294.824 60.7422 292.48 62.3047C290.202 63.8672 288.411 66.0156 287.109 68.75C285.872 71.4193 284.993 74.5117 284.473 78.0273C283.952 81.543 283.691 85.2539 283.691 89.1602V92.8711C283.691 96.7773 284.212 100.326 285.254 103.516C286.361 106.706 287.923 109.44 289.941 111.719C292.025 113.932 294.499 115.658 297.363 116.895C300.293 118.132 303.613 118.75 307.324 118.75C311.816 118.75 316.243 117.904 320.605 116.211C324.967 114.518 328.711 111.719 331.836 107.812L346.777 125.586C344.629 128.646 341.569 131.608 337.598 134.473C333.691 137.337 329.004 139.681 323.535 141.504C318.066 143.262 311.947 144.141 305.176 144.141ZM396.191 62.6953V142.188H363.281V36.5234H394.043L396.191 62.6953ZM427.441 35.7422L426.855 66.3086C425.553 66.1784 423.796 66.0156 421.582 65.8203C419.368 65.625 417.513 65.5273 416.016 65.5273C412.174 65.5273 408.854 65.9831 406.055 66.8945C403.32 67.7409 401.042 69.043 399.219 70.8008C397.461 72.4935 396.159 74.6419 395.312 77.2461C394.531 79.8503 394.173 82.8776 394.238 86.3281L388.281 82.4219C388.281 75.3255 388.965 68.8802 390.332 63.0859C391.764 57.2266 393.783 52.181 396.387 47.9492C398.991 43.6523 402.148 40.3646 405.859 38.0859C409.57 35.7422 413.737 34.5703 418.359 34.5703C419.987 34.5703 421.582 34.668 423.145 34.8633C424.772 35.0586 426.204 35.3516 427.441 35.7422ZM494.141 112.5C494.141 110.677 493.522 109.115 492.285 107.812C491.113 106.445 489.03 105.208 486.035 104.102C483.04 102.93 478.841 101.758 473.438 100.586C468.294 99.4792 463.444 98.0143 458.887 96.1914C454.395 94.3685 450.456 92.1549 447.07 89.5508C443.685 86.9466 441.016 83.8542 439.062 80.2734C437.174 76.6927 436.23 72.5911 436.23 67.9688C436.23 63.4766 437.174 59.2448 439.062 55.2734C441.016 51.237 443.848 47.6888 447.559 44.6289C451.335 41.5039 455.924 39.0625 461.328 37.3047C466.732 35.4818 472.884 34.5703 479.785 34.5703C489.29 34.5703 497.493 36.0352 504.395 38.9648C511.296 41.8294 516.602 45.8659 520.312 51.0742C524.089 56.2174 525.977 62.1745 525.977 68.9453H493.066C493.066 66.276 492.611 63.9974 491.699 62.1094C490.853 60.2214 489.453 58.7891 487.5 57.8125C485.547 56.7708 482.943 56.25 479.688 56.25C477.409 56.25 475.326 56.6732 473.438 57.5195C471.615 58.3659 470.15 59.5378 469.043 61.0352C467.936 62.5326 467.383 64.2904 467.383 66.3086C467.383 67.7409 467.708 69.043 468.359 70.2148C469.076 71.3216 470.15 72.3633 471.582 73.3398C473.014 74.2513 474.837 75.0977 477.051 75.8789C479.264 76.5951 481.934 77.2461 485.059 77.832C492.155 79.1341 498.796 80.9896 504.98 83.3984C511.165 85.8073 516.178 89.2253 520.02 93.6523C523.926 98.0794 525.879 104.036 525.879 111.523C525.879 116.211 524.805 120.54 522.656 124.512C520.508 128.418 517.415 131.868 513.379 134.863C509.342 137.793 504.492 140.072 498.828 141.699C493.164 143.327 486.784 144.141 479.688 144.141C469.596 144.141 461.068 142.35 454.102 138.77C447.135 135.124 441.862 130.566 438.281 125.098C434.766 119.564 433.008 113.965 433.008 108.301H463.672C463.802 111.556 464.583 114.225 466.016 116.309C467.513 118.392 469.499 119.922 471.973 120.898C474.447 121.875 477.311 122.363 480.566 122.363C483.561 122.363 486.035 121.94 487.988 121.094C490.007 120.247 491.536 119.108 492.578 117.676C493.62 116.178 494.141 114.453 494.141 112.5ZM620.215 142.188V166.699H531.934V142.188H620.215Z" fill="white"/>
</svg>
